<svg width="760" height="111" viewBox="0 0 760 111" fill="none" xmlns="http://www.w3.org/2000/svg">
<path opacity="0.2" d="M77.25 108L75.3526 108.632L75.8085 110H77.25V108ZM70.95 89.1L72.8474 88.4675L72.3915 87.1H70.95V89.1ZM29.1 89.1V87.1H27.6585L27.2026 88.4675L29.1 89.1ZM22.8 108V110H24.2415L24.6974 108.632L22.8 108ZM0.45 108L-1.43772 107.339L-2.36896 110H0.45V108ZM37.2 2.99999V0.999992H35.781L35.3123 2.33929L37.2 2.99999ZM62.85 2.99999L64.7369 2.33689L64.2671 0.999992H62.85V2.99999ZM99.75 108V110H102.573L101.637 107.337L99.75 108ZM35.7 69.75L33.804 69.1136L32.919 71.75H35.7V69.75ZM64.5 69.75V71.75H67.281L66.396 69.1136L64.5 69.75ZM50.1 26.85L51.996 26.2136L50.1 20.565L48.204 26.2136L50.1 26.85ZM79.1474 107.368L72.8474 88.4675L69.0526 89.7325L75.3526 108.632L79.1474 107.368ZM70.95 87.1H29.1V91.1H70.95V87.1ZM27.2026 88.4675L20.9026 107.368L24.6974 108.632L30.9974 89.7325L27.2026 88.4675ZM22.8 106H0.45V110H22.8V106ZM2.33772 108.661L39.0877 3.66069L35.3123 2.33929L-1.43772 107.339L2.33772 108.661ZM37.2 4.99999H62.85V0.999992H37.2V4.99999ZM60.9631 3.66309L97.8631 108.663L101.637 107.337L64.7369 2.33689L60.9631 3.66309ZM99.75 106H77.25V110H99.75V106ZM35.7 71.75H64.5V67.75H35.7V71.75ZM66.396 69.1136L51.996 26.2136L48.204 27.4864L62.604 70.3864L66.396 69.1136ZM48.204 26.2136L33.804 69.1136L37.596 70.3864L51.996 27.4864L48.204 26.2136ZM180.895 53.55L179.643 51.9906L177.362 53.8225L179.897 55.283L180.895 53.55ZM185.245 99.45L183.903 97.9669L185.245 99.45ZM117.445 108H115.445V110H117.445V108ZM117.445 2.99999V0.999992H115.445V2.99999H117.445ZM181.495 11.4L180.143 12.8733L180.155 12.8848L180.168 12.8961L181.495 11.4ZM138.145 22.35V20.35H136.145V22.35H138.145ZM138.145 45.45H136.145V47.45H138.145V45.45ZM166.795 42.15L165.381 40.7358L165.365 40.7522L165.349 40.769L166.795 42.15ZM170.695 85.2L172.11 86.6142L172.125 86.5992L172.139 86.5838L170.695 85.2ZM170.695 67.5L169.251 68.8838L169.266 68.8992L169.281 68.9142L170.695 67.5ZM138.145 63.9V61.9H136.145V63.9H138.145ZM138.145 88.65H136.145V90.65H138.145V88.65ZM179.897 55.283C188.471 60.2225 192.695 67.5583 192.695 77.55H196.695C196.695 66.1417 191.719 57.4775 181.894 51.817L179.897 55.283ZM192.695 77.55C192.695 85.9153 189.762 92.666 183.903 97.9669L186.587 100.933C193.328 94.834 196.695 86.9847 196.695 77.55H192.695ZM183.903 97.9669C178.003 103.305 170.744 106 161.995 106V110C171.647 110 179.888 106.995 186.587 100.933L183.903 97.9669ZM161.995 106H117.445V110H161.995V106ZM119.445 108V2.99999H115.445V108H119.445ZM117.445 4.99999H158.845V0.999992H117.445V4.99999ZM158.845 4.99999C167.392 4.99999 174.445 7.64275 180.143 12.8733L182.848 9.92669C176.345 3.95723 168.299 0.999992 158.845 0.999992V4.99999ZM180.168 12.8961C185.922 18.0006 188.795 24.4975 188.795 32.55H192.795C192.795 23.4025 189.468 15.7994 182.823 9.90384L180.168 12.8961ZM188.795 32.55C188.795 40.6633 185.755 47.0823 179.643 51.9906L182.148 55.1094C189.235 49.4177 192.795 41.8367 192.795 32.55H188.795ZM158.845 20.35H138.145V24.35H158.845V20.35ZM136.145 22.35V45.45H140.145V22.35H136.145ZM138.145 47.45H158.845V43.45H138.145V47.45ZM158.845 47.45C162.56 47.45 165.743 46.1488 168.242 43.531L165.349 40.769C163.647 42.5512 161.531 43.45 158.845 43.45V47.45ZM168.21 43.5642C170.809 40.9646 172.095 37.6947 172.095 33.9H168.095C168.095 36.7053 167.182 38.9354 165.381 40.7358L168.21 43.5642ZM172.095 33.9C172.095 30.1336 170.879 26.8744 168.392 24.269L165.499 27.0309C167.212 28.8256 168.095 31.0664 168.095 33.9H172.095ZM168.392 24.269C165.88 21.6378 162.64 20.35 158.845 20.35V24.35C161.65 24.35 163.81 25.2622 165.499 27.0309L168.392 24.269ZM161.995 90.65C165.981 90.65 169.404 89.3197 172.11 86.6142L169.281 83.7858C167.387 85.6803 165.009 86.65 161.995 86.65V90.65ZM172.139 86.5838C174.827 83.7789 176.145 80.2688 176.145 76.2H172.145C172.145 79.3312 171.163 81.8211 169.251 83.8162L172.139 86.5838ZM176.145 76.2C176.145 72.2141 174.815 68.7912 172.11 66.0858L169.281 68.9142C171.176 70.8087 172.145 73.1858 172.145 76.2H176.145ZM172.139 66.1162C169.44 63.2998 166.008 61.9 161.995 61.9V65.9C164.982 65.9 167.35 66.9002 169.251 68.8838L172.139 66.1162ZM161.995 61.9H138.145V65.9H161.995V61.9ZM136.145 63.9V88.65H140.145V63.9H136.145ZM138.145 90.65H161.995V86.65H138.145V90.65ZM304.116 94.35L305.523 95.7709L305.53 95.7642L304.116 94.35ZM226.716 94.35L225.295 95.7575L225.301 95.7642L225.308 95.7709L226.716 94.35ZM226.716 16.8L225.301 15.3858V15.3858L226.716 16.8ZM304.116 16.8L302.701 18.2142L302.708 18.2209L304.116 16.8ZM241.266 80.25L239.851 81.6642L239.857 81.6697L239.862 81.6751L241.266 80.25ZM289.566 80.25L290.969 81.6751L290.974 81.6697L290.98 81.6642L289.566 80.25ZM289.566 30.75L290.98 29.3358L289.566 30.75ZM241.266 30.75L239.851 29.3358L241.266 30.75ZM302.708 92.9291C292.49 103.05 280.1 108.1 265.416 108.1V112.1C281.132 112.1 294.541 106.65 305.523 95.7709L302.708 92.9291ZM265.416 108.1C250.732 108.1 238.341 103.05 228.123 92.9291L225.308 95.7709C236.29 106.65 249.7 112.1 265.416 112.1V108.1ZM228.137 92.9425C218.018 82.7275 212.966 70.2879 212.966 55.5H208.966C208.966 71.3121 214.413 84.7725 225.295 95.7575L228.137 92.9425ZM212.966 55.5C212.966 40.7124 218.017 28.3266 228.13 18.2142L225.301 15.3858C214.414 26.2734 208.966 39.6876 208.966 55.5H212.966ZM228.13 18.2142C238.349 7.99512 250.738 2.89999 265.416 2.89999V-1.10001C249.694 -1.10001 236.282 4.40487 225.301 15.3858L228.13 18.2142ZM265.416 2.89999C280.094 2.89999 292.482 7.99512 302.701 18.2142L305.53 15.3858C294.549 4.40487 281.138 -1.10001 265.416 -1.10001V2.89999ZM302.708 18.2209C312.918 28.3347 318.016 40.7185 318.016 55.5H322.016C322.016 39.6815 316.513 26.2653 305.523 15.3791L302.708 18.2209ZM318.016 55.5C318.016 70.2818 312.918 82.7194 302.701 92.9358L305.53 95.7642C316.514 84.7805 322.016 71.3182 322.016 55.5H318.016ZM239.862 81.6751C246.758 88.4644 255.321 91.85 265.416 91.85V87.85C256.31 87.85 248.773 84.8356 242.669 78.8249L239.862 81.6751ZM265.416 91.85C275.51 91.85 284.073 88.4644 290.969 81.6751L288.162 78.8249C282.058 84.8356 274.521 87.85 265.416 87.85V91.85ZM290.98 81.6642C297.89 74.7543 301.316 65.9791 301.316 55.5H297.316C297.316 65.0209 294.242 72.7457 288.151 78.8358L290.98 81.6642ZM301.316 55.5C301.316 45.0209 297.89 36.2457 290.98 29.3358L288.151 32.1642C294.242 38.2543 297.316 45.9791 297.316 55.5H301.316ZM290.98 29.3358C284.087 22.4426 275.52 19 265.416 19V23C274.511 23 282.045 26.0574 288.151 32.1642L290.98 29.3358ZM265.416 19C255.311 19 246.745 22.4426 239.851 29.3358L242.68 32.1642C248.787 26.0574 256.32 23 265.416 23V19ZM239.851 29.3358C232.942 36.2457 229.516 45.0209 229.516 55.5H233.516C233.516 45.9791 236.59 38.2543 242.68 32.1642L239.851 29.3358ZM229.516 55.5C229.516 65.9791 232.942 74.7543 239.851 81.6642L242.68 78.8358C236.59 72.7457 233.516 65.0209 233.516 55.5H229.516ZM351.682 100.2L350.361 101.701L351.682 100.2ZM340.432 2.99999V0.999992H338.432V2.99999H340.432ZM360.982 2.99999H362.982V0.999992H360.982V2.99999ZM365.632 85.05L364.196 86.4416L364.207 86.453L364.218 86.4642L365.632 85.05ZM395.182 85.05L393.768 83.6358L393.757 83.647L393.746 83.6584L395.182 85.05ZM399.982 2.99999V0.999992H397.982V2.99999H399.982ZM420.682 2.99999H422.682V0.999992H420.682V2.99999ZM409.432 100.2L410.753 101.701L409.432 100.2ZM380.482 108.1C369.18 108.1 360.077 104.923 353.003 98.6986L350.361 101.701C358.287 108.677 368.384 112.1 380.482 112.1V108.1ZM353.003 98.6986C345.986 92.523 342.432 84.2467 342.432 73.65H338.432C338.432 85.2533 342.378 94.677 350.361 101.701L353.003 98.6986ZM342.432 73.65V2.99999H338.432V73.65H342.432ZM340.432 4.99999H360.982V0.999992H340.432V4.99999ZM358.982 2.99999V72H362.982V2.99999H358.982ZM358.982 72C358.982 77.8909 360.654 82.7854 364.196 86.4416L367.069 83.6584C364.41 80.9146 362.982 77.1091 362.982 72H358.982ZM364.218 86.4642C367.94 90.1867 373.505 91.85 380.482 91.85V87.85C374.059 87.85 369.724 86.3133 367.046 83.6358L364.218 86.4642ZM380.482 91.85C387.453 91.85 392.988 90.1894 396.619 86.4416L393.746 83.6584C391.176 86.3106 386.911 87.85 380.482 87.85V91.85ZM396.596 86.4642C400.249 82.811 401.982 77.9087 401.982 72H397.982C397.982 77.0913 396.515 80.889 393.768 83.6358L396.596 86.4642ZM401.982 72V2.99999H397.982V72H401.982ZM399.982 4.99999H420.682V0.999992H399.982V4.99999ZM418.682 2.99999V73.65H422.682V2.99999H418.682ZM418.682 73.65C418.682 84.2467 415.128 92.523 408.111 98.6986L410.753 101.701C418.736 94.677 422.682 85.2533 422.682 73.65H418.682ZM408.111 98.6986C401.04 104.921 391.889 108.1 380.482 108.1V112.1C392.675 112.1 402.824 108.679 410.753 101.701L408.111 98.6986ZM516.28 2.99999H518.28V0.999992H516.28V2.99999ZM516.28 22.8V24.8H518.28V22.8H516.28ZM487.93 22.8V20.8H485.93V22.8H487.93ZM487.93 108V110H489.93V108H487.93ZM467.23 108H465.23V110H467.23V108ZM467.23 22.8H469.23V20.8H467.23V22.8ZM439.03 22.8H437.03V24.8H439.03V22.8ZM439.03 2.99999V0.999992H437.03V2.99999H439.03ZM514.28 2.99999V22.8H518.28V2.99999H514.28ZM516.28 20.8H487.93V24.8H516.28V20.8ZM485.93 22.8V108H489.93V22.8H485.93ZM487.93 106H467.23V110H487.93V106ZM469.23 108V22.8H465.23V108H469.23ZM467.23 20.8H439.03V24.8H467.23V20.8ZM441.03 22.8V2.99999H437.03V22.8H441.03ZM439.03 4.99999H516.28V0.999992H439.03V4.99999ZM590.686 100.2L589.365 101.701L590.686 100.2ZM579.436 2.99999V0.999992H577.436V2.99999H579.436ZM599.986 2.99999H601.986V0.999992H599.986V2.99999ZM604.636 85.05L603.199 86.4416L603.211 86.453L603.222 86.4642L604.636 85.05ZM634.186 85.05L632.772 83.6358L632.76 83.647L632.749 83.6584L634.186 85.05ZM638.986 2.99999V0.999992H636.986V2.99999H638.986ZM659.686 2.99999H661.686V0.999992H659.686V2.99999ZM648.436 100.2L649.757 101.701L648.436 100.2ZM619.486 108.1C608.184 108.1 599.081 104.923 592.007 98.6986L589.365 101.701C597.291 108.677 607.388 112.1 619.486 112.1V108.1ZM592.007 98.6986C584.99 92.523 581.436 84.2467 581.436 73.65H577.436C577.436 85.2533 581.382 94.677 589.365 101.701L592.007 98.6986ZM581.436 73.65V2.99999H577.436V73.65H581.436ZM579.436 4.99999H599.986V0.999992H579.436V4.99999ZM597.986 2.99999V72H601.986V2.99999H597.986ZM597.986 72C597.986 77.8909 599.658 82.7854 603.199 86.4416L606.072 83.6584C603.414 80.9146 601.986 77.1091 601.986 72H597.986ZM603.222 86.4642C606.944 90.1867 612.509 91.85 619.486 91.85V87.85C613.063 87.85 608.728 86.3133 606.05 83.6358L603.222 86.4642ZM619.486 91.85C626.457 91.85 631.992 90.1894 635.622 86.4416L632.749 83.6584C630.18 86.3106 625.915 87.85 619.486 87.85V91.85ZM635.6 86.4642C639.253 82.811 640.986 77.9087 640.986 72H636.986C636.986 77.0913 635.519 80.889 632.772 83.6358L635.6 86.4642ZM640.986 72V2.99999H636.986V72H640.986ZM638.986 4.99999H659.686V0.999992H638.986V4.99999ZM657.686 2.99999V73.65H661.686V2.99999H657.686ZM657.686 73.65C657.686 84.2467 654.132 92.523 647.115 98.6986L649.757 101.701C657.74 94.677 661.686 85.2533 661.686 73.65H657.686ZM647.115 98.6986C640.044 104.921 630.893 108.1 619.486 108.1V112.1C631.679 112.1 641.828 108.679 649.757 101.701L647.115 98.6986ZM695.434 103.2L694.33 104.868L694.338 104.873L694.346 104.879L695.434 103.2ZM680.434 84.15L679.424 82.4235L677.986 83.2648L678.554 84.8316L680.434 84.15ZM698.134 73.8L700.002 73.0844L699.158 70.8841L697.124 72.0735L698.134 73.8ZM735.034 86.7L733.806 85.1213L735.034 86.7ZM734.134 70.2L733.06 71.8873L733.079 71.8991L733.097 71.9104L734.134 70.2ZM716.434 63.45L715.863 65.3668L715.877 65.3709L715.891 65.3747L716.434 63.45ZM704.434 59.25L703.632 61.0823L703.643 61.0868L703.653 61.0912L704.434 59.25ZM694.684 53.7L693.484 55.3L693.512 55.3209L693.54 55.3408L694.684 53.7ZM687.334 44.7L685.526 45.554L687.334 44.7ZM694.834 9.45L696.117 10.9846L696.119 10.9827L694.834 9.45ZM741.634 7.19999L740.537 8.87209L740.552 8.88197L740.567 8.89159L741.634 7.19999ZM756.784 24.45L757.784 26.1819L759.397 25.2502L758.582 23.5751L756.784 24.45ZM739.384 34.5L737.572 35.3458L738.495 37.3234L740.384 36.2319L739.384 34.5ZM709.084 24L710.325 25.5681L710.333 25.5617L709.084 24ZM709.534 39.6L708.306 41.1787L708.338 41.2037L708.372 41.2275L709.534 39.6ZM725.434 46.2L726.031 44.291L726.022 44.2884L725.434 46.2ZM732.634 48.6L731.932 50.4727L732 50.4982L732.07 50.5187L732.634 48.6ZM739.384 51.15L738.596 52.9883L738.635 53.005L738.675 53.02L739.384 51.15ZM745.984 54.3L744.875 55.9641L744.899 55.9804L744.924 55.996L745.984 54.3ZM751.384 58.35L752.679 56.8261V56.8261L751.384 58.35ZM755.884 63.6L754.136 64.5713L754.156 64.6075L754.177 64.6429L755.884 63.6ZM758.584 70.2L756.653 70.7199L756.665 70.7651L756.679 70.8096L758.584 70.2ZM749.134 101.55L747.882 99.9904L747.871 99.9991L749.134 101.55ZM721.684 108.1C711.581 108.1 703.23 105.868 696.521 101.521L694.346 104.879C701.838 109.732 710.987 112.1 721.684 112.1V108.1ZM696.538 101.532C689.796 97.069 685.068 91.0647 682.314 83.4684L678.554 84.8316C681.6 93.2354 686.872 99.931 694.33 104.868L696.538 101.532ZM681.444 85.8765L699.144 75.5265L697.124 72.0735L679.424 82.4235L681.444 85.8765ZM696.266 74.5156C698.437 80.1798 701.708 84.558 706.139 87.5032C710.564 90.4436 715.986 91.85 722.284 91.85V87.85C716.582 87.85 711.979 86.5814 708.354 84.1718C704.735 81.767 701.931 78.1202 700.002 73.0844L696.266 74.5156ZM722.284 91.85C728.248 91.85 733.04 90.7848 736.262 88.2787L733.806 85.1213C731.628 86.8152 727.92 87.85 722.284 87.85V91.85ZM736.262 88.2787C739.41 85.83 741.084 82.6147 741.084 78.75H737.084C737.084 81.2853 736.058 83.37 733.806 85.1213L736.262 88.2787ZM741.084 78.75C741.084 74.3148 739.037 70.8331 735.171 68.4896L733.097 71.9104C735.831 73.5669 737.084 75.7852 737.084 78.75H741.084ZM735.208 68.5127C731.64 66.242 725.49 63.9287 716.977 61.5252L715.891 65.3747C724.378 67.7713 730.028 69.958 733.06 71.8873L735.208 68.5127ZM717.005 61.5332C712.352 60.1474 708.427 58.7714 705.215 57.4088L703.653 61.0912C707.041 62.5286 711.116 63.9526 715.863 65.3668L717.005 61.5332ZM705.236 57.4177C702.172 56.0774 699.036 54.2953 695.828 52.0592L693.54 55.3408C696.932 57.7047 700.296 59.6226 703.632 61.0823L705.236 57.4177ZM695.884 52.1C692.943 49.8944 690.703 47.15 689.142 43.846L685.526 45.554C687.365 49.45 690.025 52.7056 693.484 55.3L695.884 52.1ZM689.142 43.846C687.592 40.5623 686.784 36.6645 686.784 32.1H682.784C682.784 37.1355 683.676 41.6377 685.526 45.554L689.142 43.846ZM686.784 32.1C686.784 23.1334 689.915 16.1682 696.117 10.9846L693.551 7.91544C686.353 13.9318 682.784 22.0666 682.784 32.1H686.784ZM696.119 10.9827C702.532 5.60681 710.218 2.89999 719.284 2.89999V-1.10001C709.35 -1.10001 700.736 1.89318 693.549 7.91726L696.119 10.9827ZM719.284 2.89999C727.439 2.89999 734.498 4.90926 740.537 8.87209L742.731 5.5279C735.97 1.09073 728.129 -1.10001 719.284 -1.10001V2.89999ZM740.567 8.89159C746.729 12.7786 751.536 18.2353 754.986 25.3249L758.582 23.5751C754.831 15.8647 749.539 9.82134 742.701 5.5084L740.567 8.89159ZM755.784 22.7181L738.384 32.7681L740.384 36.2319L757.784 26.1819L755.784 22.7181ZM741.196 33.6542C738.978 28.9002 736.039 25.2098 732.324 22.7147C728.6 20.2133 724.224 19 719.284 19V23C723.544 23 727.118 24.0367 730.094 26.0353C733.079 28.0402 735.59 31.0998 737.572 35.3458L741.196 33.6542ZM719.284 19C714.685 19 710.794 20.0706 707.835 22.4383L710.333 25.5617C712.374 23.9294 715.283 23 719.284 23V19ZM707.843 22.4319C704.956 24.7169 703.484 27.7979 703.484 31.5H707.484C707.484 29.0021 708.412 27.0831 710.325 25.5681L707.843 22.4319ZM703.484 31.5C703.484 35.443 705.14 38.7159 708.306 41.1787L710.762 38.0213C708.528 36.2841 707.484 34.157 707.484 31.5H703.484ZM708.372 41.2275C711.462 43.4348 717.045 45.7113 724.846 48.1116L726.022 44.2884C718.223 41.8887 713.206 39.7652 710.696 37.9725L708.372 41.2275ZM724.837 48.109C728.029 49.1062 730.386 49.8929 731.932 50.4727L733.336 46.7273C731.682 46.1071 729.239 45.2938 726.031 44.291L724.837 48.109ZM732.07 50.5187C733.659 50.9861 735.825 51.8008 738.596 52.9883L740.172 49.3117C737.343 48.0992 735.009 47.2139 733.198 46.6813L732.07 50.5187ZM738.675 53.02C741.519 54.0989 743.558 55.0863 744.875 55.9641L747.093 52.6359C745.41 51.5137 743.049 50.4011 740.093 49.28L738.675 53.02ZM744.924 55.996C746.417 56.9289 748.136 58.2145 750.089 59.8739L752.679 56.8261C750.631 55.0855 748.751 53.6711 747.044 52.604L744.924 55.996ZM750.089 59.8739C751.954 61.4592 753.279 63.03 754.136 64.5713L757.632 62.6287C756.489 60.57 754.814 58.6408 752.679 56.8261L750.089 59.8739ZM754.177 64.6429C755.155 66.2425 755.989 68.2559 756.653 70.7199L760.515 69.6801C759.779 66.9441 758.813 64.5575 757.591 62.5571L754.177 64.6429ZM756.679 70.8096C757.408 73.0866 757.784 75.6278 757.784 78.45H761.784C761.784 75.2721 761.36 72.3134 760.489 69.5904L756.679 70.8096ZM757.784 78.45C757.784 87.5892 754.475 94.6977 747.882 99.9904L750.386 103.11C757.993 97.0023 761.784 88.7108 761.784 78.45H757.784ZM747.871 99.9991C741.31 105.342 732.643 108.1 721.684 108.1V112.1C733.325 112.1 742.958 109.158 750.397 103.101L747.871 99.9991Z" fill="black"/>
</svg>
